<?xml version="1.0" standalone="no"?>
<!DOCTYPE svg PUBLIC "-//W3C//DTD SVG 20010904//EN"
 "http://www.w3.org/TR/2001/REC-SVG-20010904/DTD/svg10.dtd">
<svg version="1.0" xmlns="http://www.w3.org/2000/svg"
 width="500.000000pt" height="500.000000pt" viewBox="0 0 500.000000 500.000000"
 preserveAspectRatio="xMidYMid meet">
<metadata>
Created by potrace 1.11, written by Peter Selinger 2001-2013
</metadata>
<g transform="translate(0.000000,500.000000) scale(0.100000,-0.100000)"
fill="#000000" stroke="none">
<path d="M0 2500 l0 -2500 2500 0 2500 0 0 2500 0 2500 -2500 0 -2500 0 0
-2500z m620 2178 c-1 -7 -40 -236 -89 -508 l-87 -495 -167 -3 c-105 -1 -167 1
-167 7 0 14 170 983 175 999 3 9 46 12 170 12 126 0 165 -3 165 -12z m970 4
c0 -9 -48 -287 -55 -319 l-5 -23 153 0 153 0 30 173 29 172 168 3 c92 1 167
-1 167 -5 0 -5 -33 -197 -74 -428 -41 -231 -73 -421 -73 -422 1 -1 105 192
231 428 l228 429 174 0 c96 0 174 -3 174 -8 0 -4 41 -230 90 -502 50 -272 90
-498 90 -502 0 -5 -76 -8 -169 -8 l-169 0 -7 65 -7 65 -164 0 -164 0 -29 -65
-30 -65 -305 0 c-238 0 -306 3 -306 13 0 6 14 86 30 177 17 91 30 173 30 183
0 15 -14 17 -149 17 l-149 0 -17 -92 c-9 -51 -24 -138 -34 -193 l-17 -100
-167 -3 c-105 -1 -167 1 -167 7 0 14 170 983 175 999 3 9 46 12 170 12 91 0
165 -4 165 -8z m1889 -279 c13 -159 27 -307 30 -331 6 -43 8 -38 153 285 l147
328 574 3 574 2 -20 -120 -20 -120 -247 0 -248 0 -5 -22 c-3 -13 -9 -44 -12
-70 l-7 -48 206 0 c158 0 206 -3 206 -12 0 -17 -29 -188 -36 -210 -5 -16 -24
-18 -213 -18 l-208 0 -11 -64 c-7 -35 -12 -71 -12 -80 0 -14 26 -16 256 -16
l256 0 -6 -27 c-9 -38 -36 -196 -36 -205 0 -5 -191 -8 -425 -8 -263 0 -425 4
-425 10 0 5 36 213 80 461 44 249 79 454 77 455 -1 1 -111 -205 -243 -459
l-241 -462 -171 -3 -170 -2 -6 27 c-3 16 -39 237 -81 493 -41 256 -77 473 -79
483 -4 16 9 17 168 17 l172 0 23 -287z m-1727 -844 c298 -63 407 -385 243
-717 -106 -214 -315 -342 -560 -342 -203 0 -343 77 -413 228 -22 48 -27 75
-30 164 -5 125 13 221 58 317 17 34 30 65 30 67 0 2 -62 4 -138 4 l-137 0 -66
-372 -65 -373 -167 -3 c-108 -2 -167 1 -167 8 0 10 117 680 125 718 l5 22
-151 0 -151 0 5 23 c3 12 13 65 22 117 9 52 18 103 21 113 5 16 36 17 470 17
255 0 464 -3 464 -7 0 -5 -7 -44 -15 -88 -8 -44 -17 -91 -19 -105 -4 -21 8
-13 67 45 82 80 164 127 269 155 83 22 220 26 300 9z m1018 -17 c0 -4 -29
-173 -65 -375 -36 -202 -65 -374 -65 -382 0 -13 33 -15 215 -15 118 0 215 3
215 8 1 4 31 178 68 387 l68 380 415 3 416 2 -20 -120 -20 -120 -247 0 -248 0
-5 -22 c-3 -13 -9 -44 -12 -70 l-7 -48 206 0 c158 0 206 -3 206 -12 0 -17 -29
-188 -36 -210 -5 -16 -24 -18 -213 -18 l-208 0 -11 -64 c-7 -35 -12 -71 -12
-80 0 -14 26 -16 254 -16 l253 0 207 390 208 390 174 0 c96 0 174 -3 174 -8 0
-4 41 -230 90 -502 50 -272 90 -498 90 -502 0 -5 -76 -8 -169 -8 l-169 0 -7
65 -7 65 -164 0 -164 0 -29 -65 -30 -65 -930 0 c-590 0 -931 4 -931 10 0 13
170 982 175 998 3 9 46 12 170 12 91 0 165 -3 165 -8z m-1601 -1419 c13 -159
27 -307 30 -331 6 -43 8 -38 153 285 l147 328 574 3 574 2 -20 -120 -20 -120
-247 0 -248 0 -5 -22 c-3 -13 -9 -44 -12 -70 l-7 -48 206 0 c158 0 206 -3 206
-12 0 -17 -29 -188 -36 -210 -5 -16 -24 -18 -213 -18 l-208 0 -11 -64 c-7 -35
-12 -71 -12 -80 0 -14 26 -16 256 -16 l256 0 -6 -27 c-9 -38 -36 -196 -36
-205 0 -5 -191 -8 -425 -8 -263 0 -425 4 -425 10 0 5 36 213 80 461 44 249 79
454 77 455 -1 1 -111 -205 -243 -459 l-241 -462 -171 -3 -170 -2 -6 27 c-3 16
-39 237 -81 493 -41 256 -77 473 -79 483 -4 16 9 17 168 17 l172 0 23 -287z
m2436 276 c77 -14 148 -50 177 -91 19 -28 23 -45 23 -108 0 -94 -26 -153 -101
-226 l-52 -52 36 -23 c56 -36 85 -100 79 -175 -9 -122 -76 -223 -185 -278 -93
-47 -174 -56 -502 -56 -186 0 -300 4 -300 10 0 13 170 982 175 998 6 16 563
17 650 1z m616 -154 c29 -91 55 -165 58 -165 3 0 56 74 116 165 l110 164 188
1 189 0 -30 -37 c-72 -93 -449 -589 -456 -601 -5 -8 -23 -95 -40 -195 l-32
-182 -167 -3 c-112 -2 -167 1 -167 8 0 6 14 89 31 186 l31 175 -112 277 c-62
152 -121 298 -131 325 l-19 47 189 0 189 0 53 -165z m-992 -1002 c30 -12 71
-36 92 -53 l38 -30 8 53 8 52 203 3 c158 2 202 0 202 -10 1 -39 67 -589 72
-593 3 -3 68 131 146 297 l140 303 201 3 c158 2 201 0 201 -10 -1 -7 -40 -236
-89 -508 l-87 -495 -147 -3 c-99 -2 -147 1 -147 8 0 32 84 475 100 530 11 35
18 65 17 67 -2 1 -66 -134 -143 -300 l-140 -302 -121 -3 -122 -3 -5 33 c-3 18
-20 157 -37 308 -17 151 -33 277 -35 279 -2 2 -4 -16 -4 -41 0 -54 -20 -200
-58 -413 l-28 -160 -147 -3 c-96 -2 -147 1 -147 8 0 5 16 99 35 207 19 108 35
201 35 206 0 4 -16 -4 -35 -19 -19 -15 -66 -38 -103 -52 -59 -22 -87 -26 -229
-30 -90 -2 -163 -5 -164 -6 0 0 -12 -71 -28 -156 l-27 -155 -168 -3 -169 -2 6
37 c4 21 10 54 13 73 l7 35 -34 -33 c-85 -84 -189 -122 -350 -129 -101 -5
-126 -3 -189 16 -125 38 -200 138 -200 265 0 89 -5 86 151 86 l139 0 0 -39 c0
-112 148 -147 229 -56 23 26 31 45 31 73 0 59 -21 76 -108 88 -29 3 -52 10
-52 15 0 7 12 70 25 135 4 17 14 22 54 27 92 11 141 55 141 126 0 41 -39 66
-101 65 -56 -1 -93 -22 -121 -70 l-20 -34 -134 0 -134 0 6 28 c13 53 56 125
104 172 55 56 121 92 211 115 88 23 251 16 329 -14 53 -20 115 -72 137 -114 8
-15 13 -2 23 60 7 43 15 82 18 86 2 5 149 7 326 5 303 -3 324 -5 375 -25z"/>
<path d="M2583 4213 c-40 -87 -75 -166 -79 -176 -6 -15 3 -17 94 -17 l100 0
-5 38 c-3 20 -12 99 -21 175 l-17 138 -72 -158z"/>
<path d="M1520 3309 c-112 -34 -190 -179 -192 -355 -1 -138 45 -199 150 -199
152 1 247 139 247 362 0 87 -3 105 -21 129 -45 61 -113 84 -184 63z"/>
<path d="M4373 3073 c-40 -87 -75 -166 -79 -176 -6 -15 3 -17 94 -17 l100 0
-5 38 c-3 20 -12 99 -21 175 l-17 138 -72 -158z"/>
<path d="M3250 2166 c0 -2 -7 -40 -15 -83 -8 -43 -15 -82 -15 -87 0 -16 183
-1 211 17 51 34 66 114 27 141 -16 12 -47 16 -115 16 -51 0 -93 -2 -93 -4z"/>
<path d="M3186 1799 c-7 -25 -26 -132 -26 -151 0 -16 9 -18 98 -17 124 0 161
13 185 61 38 79 -1 109 -149 116 -82 4 -104 2 -108 -9z"/>
<path d="M2820 1027 c0 -6 -29 -165 -35 -194 -5 -22 -3 -23 72 -23 137 1 190
25 214 97 26 81 -17 114 -158 121 -51 2 -93 2 -93 -1z"/>
<path d="M2424 829 c-10 -12 -32 -28 -48 -36 l-28 -15 35 -24 c19 -13 37 -29
40 -36 2 -7 9 18 16 56 7 37 10 70 8 72 -2 2 -12 -5 -23 -17z"/>
</g>
</svg>
